<svg xmlns="http://www.w3.org/2000/svg" width="257.245" height="203.502" viewBox="0 0 257.245 203.502">
  <path id="Union_8" data-name="Union 8" d="M183.362,268.5v-41h6.425v34.527H211.2V268.5Zm-33.193,0v-41h6.424v41Zm-118.355,0H24.053l-3.884-14.61-2.085,6.876-3.375-14.715.715-2.359,4.839-15.008.171.022.78-.068,6.141,23.094L31.6,227.5h7.611l-7.174,41Zm-17.03,0H7.174L0,227.5H7.611l7.174,41h0Zm212.479,0v-6.473h29.982V268.5Zm-132.774,0v-6.473h18.2V268.5Zm-44.971,0v-6.473H79.5V268.5Zm63.175-6.479c3.7,0,6.278-2.217,6.278-5.389s-2.582-5.4-6.278-5.4v0h-18.2v-6.475h16.061v-.005c3.7,0,6.279-2.217,6.279-5.389s-2.582-5.4-6.279-5.4v0H94.489V227.5h16.063a13.175,13.175,0,0,1,8.933,3.476,11.272,11.272,0,0,1,.685,16.1,12.706,12.706,0,0,1,1.456,1.167,11.292,11.292,0,0,1,0,16.784,13.176,13.176,0,0,1-8.934,3.476Zm114.571-10.783v-6.475h26.77v6.475Zm-177.746,0v-6.475h26.77v6.475Zm177.746-17.264V227.5h29.982v6.474Zm-177.746,0V227.5H79.5v6.474ZM118.724,201.9a13.9,13.9,0,0,1-4.066-8.9h-.035V93h-27a14,14,0,0,1-.98-27.966A3.523,3.523,0,0,1,87.123,65c.051,0,.1,0,.152,0,.116,0,.232,0,.348,0v.037a3.5,3.5,0,0,1,0,6.929V72a7,7,0,0,0,0,14h29a5.005,5.005,0,0,1,5,5V192h0a7,7,0,0,0,14,.111V133h.035a3.5,3.5,0,0,1,6.929,0h.036v60h-.035a14,14,0,0,1-23.864,8.9ZM135.658,116h-.035V90h.1a5.01,5.01,0,0,1,4.9-4h29a7,7,0,0,0,.158-14H104.622v-.035a3.5,3.5,0,0,1,0-6.929V65h67v.14a14,14,0,0,1-2,27.859h-27v23h-.036a3.5,3.5,0,0,1-6.929,0Z" transform="translate(0 -65)" fill="#745ff3"/>
</svg>
