<svg xmlns="http://www.w3.org/2000/svg" width="110" height="141" viewBox="0 0 110 141">
  <path id="Union_1" data-name="Union 1" d="M45.1,201.9a13.9,13.9,0,0,1-4.066-8.9H41V93H14V86H43a5.005,5.005,0,0,1,5,5V192h0a7,7,0,0,0,14,.111V133h.036a3.5,3.5,0,0,1,6.929,0H69v60h-.035A14,14,0,0,1,45.1,201.9ZM62.036,116H62V90h.1A5.009,5.009,0,0,1,67,86H96a7,7,0,0,0,.159-14H31v-.036a3.5,3.5,0,0,1,0-6.929V65H98v.14A14,14,0,0,1,96,93H69v23h-.036a3.5,3.5,0,0,1-6.929,0ZM14,93a14,14,0,0,1-.98-27.966A3.53,3.53,0,0,1,13.5,65c.051,0,.1,0,.152,0q.174,0,.348,0v.036a3.5,3.5,0,0,1,0,6.929V72a7,7,0,0,0,0,14v7h0Z" transform="translate(0 -65)" fill="#745ff3"/>
</svg>
